<mxfile host="app.diagrams.net" agent="Mozilla/5.0 (Windows NT 10.0; Win64; x64) AppleWebKit/537.36 (KHTML, like Gecko) Chrome/130.0.0.0 Safari/537.36" version="24.8.4">
  <diagram name="Page-1" id="lWq9BYAYx9qGzFw7tIrK">
    <mxGraphModel dx="5556" dy="2423" grid="1" gridSize="10" guides="1" tooltips="1" connect="1" arrows="1" fold="1" page="1" pageScale="1" pageWidth="850" pageHeight="1100" math="0" shadow="0">
      <root>
        <mxCell id="0" />
        <mxCell id="1" parent="0" />
        <mxCell id="0rgBf8szZGn3hUB_6yJd-76" value="&lt;font style=&quot;font-weight: normal;&quot; face=&quot;Comic Sans MS&quot;&gt;&lt;span style=&quot;color: rgb(0, 0, 0); font-size: 12px; font-style: normal; font-variant-ligatures: normal; font-variant-caps: normal; letter-spacing: normal; orphans: 2; text-align: left; text-indent: 0px; text-transform: none; widows: 2; word-spacing: 0px; -webkit-text-stroke-width: 0px; white-space: normal; background-color: rgb(251, 251, 251); text-decoration-thickness: initial; text-decoration-style: initial; text-decoration-color: initial; float: none; display: inline !important;&quot;&gt;Ejercicio 1&lt;/span&gt;&lt;br style=&quot;forced-color-adjust: none; padding: 0px; margin: 0px; color: rgb(0, 0, 0); font-size: 12px; font-style: normal; font-variant-ligatures: normal; font-variant-caps: normal; letter-spacing: normal; orphans: 2; text-align: left; text-indent: 0px; text-transform: none; widows: 2; word-spacing: 0px; -webkit-text-stroke-width: 0px; white-space: normal; background-color: rgb(251, 251, 251); text-decoration-thickness: initial; text-decoration-style: initial; text-decoration-color: initial;&quot;&gt;&lt;br style=&quot;forced-color-adjust: none; padding: 0px; margin: 0px; color: rgb(0, 0, 0); font-size: 12px; font-style: normal; font-variant-ligatures: normal; font-variant-caps: normal; letter-spacing: normal; orphans: 2; text-align: left; text-indent: 0px; text-transform: none; widows: 2; word-spacing: 0px; -webkit-text-stroke-width: 0px; white-space: normal; background-color: rgb(251, 251, 251); text-decoration-thickness: initial; text-decoration-style: initial; text-decoration-color: initial;&quot;&gt;&lt;span style=&quot;color: rgb(0, 0, 0); font-size: 12px; font-style: normal; font-variant-ligatures: normal; font-variant-caps: normal; letter-spacing: normal; orphans: 2; text-align: left; text-indent: 0px; text-transform: none; widows: 2; word-spacing: 0px; -webkit-text-stroke-width: 0px; white-space: normal; background-color: rgb(251, 251, 251); text-decoration-thickness: initial; text-decoration-style: initial; text-decoration-color: initial; float: none; display: inline !important;&quot;&gt;Cliente(idCliente, nombre, apellido, DNI, telefono, direccion)&lt;/span&gt;&lt;span style=&quot;color: rgb(0, 0, 0); font-size: 12px; font-style: normal; font-variant-ligatures: normal; font-variant-caps: normal; letter-spacing: normal; orphans: 2; text-align: left; text-indent: 0px; text-transform: none; widows: 2; word-spacing: 0px; -webkit-text-stroke-width: 0px; white-space: normal; background-color: rgb(251, 251, 251); text-decoration-thickness: initial; text-decoration-style: initial; text-decoration-color: initial; float: none; display: inline !important;&quot;&gt;&lt;br&gt;&lt;/span&gt;&lt;/font&gt;&lt;div&gt;&lt;font style=&quot;font-weight: normal;&quot; face=&quot;Comic Sans MS&quot;&gt;&lt;span style=&quot;color: rgb(0, 0, 0); font-size: 12px; font-style: normal; font-variant-ligatures: normal; font-variant-caps: normal; letter-spacing: normal; orphans: 2; text-align: left; text-indent: 0px; text-transform: none; widows: 2; word-spacing: 0px; -webkit-text-stroke-width: 0px; white-space: normal; background-color: rgb(251, 251, 251); text-decoration-thickness: initial; text-decoration-style: initial; text-decoration-color: initial; float: none; display: inline !important;&quot;&gt;Factura (nroTicket, total, fecha, hora,idCliente(Fk))&lt;/span&gt;&lt;br style=&quot;forced-color-adjust: none; padding: 0px; margin: 0px; color: rgb(0, 0, 0); font-size: 12px; font-style: normal; font-variant-ligatures: normal; font-variant-caps: normal; letter-spacing: normal; orphans: 2; text-align: left; text-indent: 0px; text-transform: none; widows: 2; word-spacing: 0px; -webkit-text-stroke-width: 0px; white-space: normal; background-color: rgb(251, 251, 251); text-decoration-thickness: initial; text-decoration-style: initial; text-decoration-color: initial;&quot;&gt;&lt;span style=&quot;color: rgb(0, 0, 0); font-size: 12px; font-style: normal; font-variant-ligatures: normal; font-variant-caps: normal; letter-spacing: normal; orphans: 2; text-align: left; text-indent: 0px; text-transform: none; widows: 2; word-spacing: 0px; -webkit-text-stroke-width: 0px; white-space: normal; background-color: rgb(251, 251, 251); text-decoration-thickness: initial; text-decoration-style: initial; text-decoration-color: initial; float: none; display: inline !important;&quot;&gt;Detalle(nroTicket, idProducto, cantidad, preciounitario)&lt;/span&gt;&lt;br style=&quot;forced-color-adjust: none; padding: 0px; margin: 0px; color: rgb(0, 0, 0); font-size: 12px; font-style: normal; font-variant-ligatures: normal; font-variant-caps: normal; letter-spacing: normal; orphans: 2; text-align: left; text-indent: 0px; text-transform: none; widows: 2; word-spacing: 0px; -webkit-text-stroke-width: 0px; white-space: normal; background-color: rgb(251, 251, 251); text-decoration-thickness: initial; text-decoration-style: initial; text-decoration-color: initial;&quot;&gt;&lt;span style=&quot;color: rgb(0, 0, 0); font-size: 12px; font-style: normal; font-variant-ligatures: normal; font-variant-caps: normal; letter-spacing: normal; orphans: 2; text-align: left; text-indent: 0px; text-transform: none; widows: 2; word-spacing: 0px; -webkit-text-stroke-width: 0px; white-space: normal; background-color: rgb(251, 251, 251); text-decoration-thickness: initial; text-decoration-style: initial; text-decoration-color: initial; float: none; display: inline !important;&quot;&gt;Producto(idProducto, nombreP, descripcion, precio, stock)&lt;/span&gt;&lt;/font&gt;&lt;/div&gt;" style="text;whiteSpace=wrap;html=1;fontStyle=1;fillColor=#f5f5f5;strokeColor=#666666;fontColor=#333333;" vertex="1" parent="1">
          <mxGeometry x="-175" y="840" width="1200" height="120" as="geometry" />
        </mxCell>
        <mxCell id="0rgBf8szZGn3hUB_6yJd-77" value="&lt;span style=&quot;color: rgb(0, 0, 0); font-family: Helvetica; font-size: 12px; font-style: normal; font-variant-ligatures: normal; font-variant-caps: normal; letter-spacing: normal; orphans: 2; text-align: left; text-indent: 0px; text-transform: none; widows: 2; word-spacing: 0px; -webkit-text-stroke-width: 0px; white-space: normal; background-color: rgb(251, 251, 251); text-decoration-thickness: initial; text-decoration-style: initial; text-decoration-color: initial; float: none; display: inline !important;&quot;&gt;1. Listar nombre, apellido, DNI, teléfono y dirección de clientes con DNI superior a 22222222.&lt;/span&gt;&lt;br style=&quot;forced-color-adjust: none; padding: 0px; margin: 0px; color: rgb(0, 0, 0); font-family: Helvetica; font-size: 12px; font-style: normal; font-variant-ligatures: normal; font-variant-caps: normal; letter-spacing: normal; orphans: 2; text-align: left; text-indent: 0px; text-transform: none; widows: 2; word-spacing: 0px; -webkit-text-stroke-width: 0px; white-space: normal; background-color: rgb(251, 251, 251); text-decoration-thickness: initial; text-decoration-style: initial; text-decoration-color: initial;&quot;&gt;" style="text;whiteSpace=wrap;html=1;fontStyle=1;fillColor=#f5f5f5;strokeColor=#666666;fontColor=#333333;" vertex="1" parent="1">
          <mxGeometry x="-175" y="1000" width="1210" height="40" as="geometry" />
        </mxCell>
        <mxCell id="0rgBf8szZGn3hUB_6yJd-78" value="&lt;span style=&quot;color: rgb(0, 0, 0); font-family: Helvetica; font-size: 12px; font-style: normal; font-variant-ligatures: normal; font-variant-caps: normal; letter-spacing: normal; orphans: 2; text-align: left; text-indent: 0px; text-transform: none; widows: 2; word-spacing: 0px; -webkit-text-stroke-width: 0px; white-space: normal; background-color: rgb(251, 251, 251); text-decoration-thickness: initial; text-decoration-style: initial; text-decoration-color: initial; float: none; display: inline !important;&quot;&gt;3. Listar nombre, apellido, DNI, teléfono y dirección de clientes que realizaron compras durante 2020.&lt;/span&gt;&lt;br style=&quot;forced-color-adjust: none; padding: 0px; margin: 0px; color: rgb(0, 0, 0); font-family: Helvetica; font-size: 12px; font-style: normal; font-variant-ligatures: normal; font-variant-caps: normal; letter-spacing: normal; orphans: 2; text-align: left; text-indent: 0px; text-transform: none; widows: 2; word-spacing: 0px; -webkit-text-stroke-width: 0px; white-space: normal; background-color: rgb(251, 251, 251); text-decoration-thickness: initial; text-decoration-style: initial; text-decoration-color: initial;&quot;&gt;" style="text;whiteSpace=wrap;html=1;fillColor=#f5f5f5;fontColor=#333333;strokeColor=#666666;fontStyle=1" vertex="1" parent="1">
          <mxGeometry x="-175" y="1280" width="1200" height="40" as="geometry" />
        </mxCell>
        <mxCell id="0rgBf8szZGn3hUB_6yJd-79" value="&lt;span style=&quot;color: rgb(0, 0, 0); font-family: Helvetica; font-size: 12px; font-style: normal; font-variant-ligatures: normal; font-variant-caps: normal; letter-spacing: normal; orphans: 2; text-align: left; text-indent: 0px; text-transform: none; widows: 2; word-spacing: 0px; -webkit-text-stroke-width: 0px; white-space: normal; background-color: rgb(251, 251, 251); text-decoration-thickness: initial; text-decoration-style: initial; text-decoration-color: initial; float: none; display: inline !important;&quot;&gt;&lt;b&gt;4. Listar nombre, apellido, DNI, teléfono y dirección de clientes que no realizaron compras durante 2020.&lt;/b&gt;&lt;/span&gt;" style="text;whiteSpace=wrap;html=1;fillColor=#f5f5f5;fontColor=#333333;strokeColor=#666666;" vertex="1" parent="1">
          <mxGeometry x="-175" y="1440" width="1200" height="40" as="geometry" />
        </mxCell>
        <mxCell id="0rgBf8szZGn3hUB_6yJd-80" value="&lt;span style=&quot;color: rgb(0, 0, 0); font-family: Helvetica; font-size: 12px; font-style: normal; font-variant-ligatures: normal; font-variant-caps: normal; letter-spacing: normal; orphans: 2; text-align: left; text-indent: 0px; text-transform: none; widows: 2; word-spacing: 0px; -webkit-text-stroke-width: 0px; white-space: normal; background-color: rgb(251, 251, 251); text-decoration-thickness: initial; text-decoration-style: initial; text-decoration-color: initial; float: none; display: inline !important;&quot;&gt;&lt;b&gt;5. Listar nombre, apellido, DNI, teléfono y dirección de clientes que solo tengan compras durante 2020.&lt;/b&gt;&lt;/span&gt;" style="text;whiteSpace=wrap;html=1;fillColor=#f5f5f5;fontColor=#333333;strokeColor=#666666;" vertex="1" parent="1">
          <mxGeometry x="-175" y="1600" width="1200" height="40" as="geometry" />
        </mxCell>
        <mxCell id="0rgBf8szZGn3hUB_6yJd-81" value="&lt;span style=&quot;color: rgb(0, 0, 0); font-family: Helvetica; font-size: 12px; font-style: normal; font-variant-ligatures: normal; font-variant-caps: normal; letter-spacing: normal; orphans: 2; text-align: left; text-indent: 0px; text-transform: none; widows: 2; word-spacing: 0px; -webkit-text-stroke-width: 0px; white-space: normal; background-color: rgb(251, 251, 251); text-decoration-thickness: initial; text-decoration-style: initial; text-decoration-color: initial; float: none; display: inline !important;&quot;&gt;6. Listar nombre, descripción, precio y stock de productos no vendidos.&lt;/span&gt;&lt;br style=&quot;forced-color-adjust: none; padding: 0px; margin: 0px; color: rgb(0, 0, 0); font-family: Helvetica; font-size: 12px; font-style: normal; font-variant-ligatures: normal; font-variant-caps: normal; letter-spacing: normal; orphans: 2; text-align: left; text-indent: 0px; text-transform: none; widows: 2; word-spacing: 0px; -webkit-text-stroke-width: 0px; white-space: normal; background-color: rgb(251, 251, 251); text-decoration-thickness: initial; text-decoration-style: initial; text-decoration-color: initial;&quot;&gt;" style="text;whiteSpace=wrap;html=1;fillColor=#f5f5f5;fontColor=#333333;strokeColor=#666666;fontStyle=1" vertex="1" parent="1">
          <mxGeometry x="-175" y="1800" width="1200" height="40" as="geometry" />
        </mxCell>
        <mxCell id="0rgBf8szZGn3hUB_6yJd-82" value="7. Listar nombre, apellido, DNI, teléfono y dirección de clientes que no compraron el producto con nombre ‘ProductoX’ durante 2020." style="text;whiteSpace=wrap;fillColor=#f5f5f5;fontColor=#333333;strokeColor=#666666;fontStyle=1" vertex="1" parent="1">
          <mxGeometry x="-175" y="1960" width="1200" height="40" as="geometry" />
        </mxCell>
        <mxCell id="0rgBf8szZGn3hUB_6yJd-83" value="&lt;span style=&quot;color: rgb(0, 0, 0); font-style: normal; font-variant-ligatures: normal; font-variant-caps: normal; font-weight: 400; letter-spacing: normal; orphans: 2; text-align: left; text-indent: 0px; text-transform: none; widows: 2; word-spacing: 0px; -webkit-text-stroke-width: 0px; white-space: normal; background-color: rgb(251, 251, 251); text-decoration-thickness: initial; text-decoration-style: initial; text-decoration-color: initial; float: none; display: inline !important;&quot;&gt;&lt;font face=&quot;Comic Sans MS&quot; style=&quot;font-size: 24px;&quot;&gt;π&lt;/font&gt;&lt;font face=&quot;Comic Sans MS&quot; style=&quot;font-size: 18px;&quot;&gt;&amp;nbsp;&lt;/font&gt;&lt;/span&gt;&lt;span style=&quot;orphans: 2; text-align: left; text-indent: 0px; widows: 2; background-color: rgb(251, 251, 251); text-decoration-thickness: initial; text-decoration-style: initial; text-decoration-color: initial; float: none; display: inline !important; white-space: normal; -webkit-text-stroke-width: 0px; word-spacing: 0px; text-transform: none; letter-spacing: normal; font-weight: 400; font-variant-caps: normal; font-variant-ligatures: normal; font-style: normal; color: rgb(0, 0, 0);&quot;&gt;&lt;font style=&quot;font-size: 12px;&quot; face=&quot;Comic Sans MS&quot;&gt;nombre, apellido, DNI, telefono, direccion&lt;/font&gt;&lt;font style=&quot;font-size: 12px;&quot; face=&quot;HGU8U4_J7BmztBYeBlUx&quot;&gt; &lt;/font&gt;&lt;font style=&quot;font-size: 18px;&quot; face=&quot;Comic Sans MS&quot;&gt;(&lt;/font&gt;&lt;font face=&quot;Comic Sans MS&quot; style=&quot;font-size: 24px;&quot;&gt;σ&lt;/font&gt;&lt;font style=&quot;font-family: srKWryZNSRmXTXJAFYNI; font-size: 18px;&quot;&gt;&amp;nbsp;&lt;/font&gt;&lt;font style=&quot;&quot; face=&quot;Comic Sans MS&quot;&gt;&lt;span style=&quot;font-size: 12px;&quot;&gt;DNI &amp;gt;  “22222222” &lt;/span&gt;&lt;font style=&quot;font-size: 18px;&quot;&gt;&lt;font style=&quot;&quot;&gt;(&lt;/font&gt;&lt;font style=&quot;&quot;&gt;Cliente&lt;/font&gt;&lt;/font&gt;&lt;/font&gt;&lt;font style=&quot;font-size: medium;&quot; face=&quot;Comic Sans MS&quot;&gt;)&lt;/font&gt;&lt;span style=&quot;font-family: &amp;quot;Comic Sans MS&amp;quot;; font-size: 18px;&quot;&gt;)&lt;/span&gt;&lt;br&gt;&lt;/span&gt;" style="text;whiteSpace=wrap;html=1;verticalAlign=middle;" vertex="1" parent="1">
          <mxGeometry x="-175" y="1040" width="1200" height="40" as="geometry" />
        </mxCell>
        <mxCell id="0rgBf8szZGn3hUB_6yJd-84" value="&lt;span style=&quot;forced-color-adjust: none; color: rgb(0, 0, 0); font-size: 12px; font-style: normal; font-variant-ligatures: normal; font-variant-caps: normal; font-weight: 400; letter-spacing: normal; orphans: 2; text-align: left; text-indent: 0px; text-transform: none; widows: 2; word-spacing: 0px; -webkit-text-stroke-width: 0px; white-space: normal; text-decoration-thickness: initial; text-decoration-style: initial; text-decoration-color: initial; background-color: rgb(251, 251, 251); float: none; display: inline !important;&quot;&gt;&lt;font style=&quot;forced-color-adjust: none; font-size: 24px;&quot;&gt;π&lt;/font&gt;&lt;font style=&quot;forced-color-adjust: none; font-size: 18px;&quot;&gt;&amp;nbsp;&lt;/font&gt;&lt;/span&gt;&lt;span style=&quot;forced-color-adjust: none; color: rgb(0, 0, 0); font-size: 12px; font-style: normal; font-variant-ligatures: normal; font-variant-caps: normal; font-weight: 400; letter-spacing: normal; orphans: 2; text-align: left; text-indent: 0px; text-transform: none; widows: 2; word-spacing: 0px; -webkit-text-stroke-width: 0px; white-space: normal; text-decoration-thickness: initial; text-decoration-style: initial; text-decoration-color: initial; background-color: rgb(251, 251, 251); float: none; display: inline !important;&quot;&gt;&lt;font style=&quot;forced-color-adjust: none; font-size: 12px;&quot;&gt;nombre, apellido, DNI, telefono, direccion&lt;/font&gt;&lt;font style=&quot;forced-color-adjust: none; font-size: 12px;&quot;&gt;&lt;span&gt;&amp;nbsp;&lt;/span&gt;&lt;/font&gt;&lt;font style=&quot;forced-color-adjust: none; font-size: 18px;&quot;&gt;(&lt;/font&gt;&lt;font style=&quot;forced-color-adjust: none; font-size: 24px;&quot;&gt;σ&lt;/font&gt;&lt;font style=&quot;forced-color-adjust: none; font-size: 18px;&quot;&gt;&amp;nbsp;&lt;/font&gt;&lt;font style=&quot;forced-color-adjust: none;&quot;&gt;&lt;span style=&quot;forced-color-adjust: none; font-size: 12px;&quot;&gt;(DNI &amp;gt; “22222222”) and (total &amp;lt; 100000)&amp;nbsp;&amp;nbsp;&lt;span&gt;&amp;nbsp;&lt;/span&gt;&lt;/span&gt;&lt;font style=&quot;forced-color-adjust: none; font-size: 18px;&quot;&gt;&lt;font style=&quot;forced-color-adjust: none;&quot;&gt;(&lt;/font&gt;&lt;font style=&quot;forced-color-adjust: none;&quot;&gt;Cliente |x| Factura&lt;/font&gt;&lt;/font&gt;&lt;/font&gt;&lt;font style=&quot;forced-color-adjust: none;&quot; size=&quot;3&quot;&gt;&lt;font style=&quot;forced-color-adjust: none;&quot;&gt;&lt;font style=&quot;font-size: 12px;&quot;&gt;&lt;font style=&quot;font-size: 18px;&quot;&gt;)&lt;/font&gt;&lt;/font&gt;&lt;font style=&quot;font-size: 12px;&quot;&gt;&lt;font style=&quot;font-size: 18px;&quot;&gt;)&lt;/font&gt;&lt;/font&gt;&lt;/font&gt;&lt;/font&gt;&lt;/span&gt;" style="text;whiteSpace=wrap;html=1;fontFamily=Comic Sans MS;verticalAlign=middle;" vertex="1" parent="1">
          <mxGeometry x="-175" y="1160" width="1200" height="40" as="geometry" />
        </mxCell>
        <mxCell id="0rgBf8szZGn3hUB_6yJd-85" value="&lt;span style=&quot;color: rgb(0, 0, 0); font-family: Helvetica; font-size: 12px; font-style: normal; font-variant-ligatures: normal; font-variant-caps: normal; letter-spacing: normal; orphans: 2; text-align: left; text-indent: 0px; text-transform: none; widows: 2; word-spacing: 0px; -webkit-text-stroke-width: 0px; white-space: normal; background-color: rgb(251, 251, 251); text-decoration-thickness: initial; text-decoration-style: initial; text-decoration-color: initial; float: none; display: inline !important;&quot;&gt;2. Listar nombre, apellido, DNI, teléfono y dirección de clientes con DNI superior a 22222222 y que tengan facturas cuyo total no supere los $100000.&lt;/span&gt;" style="text;whiteSpace=wrap;html=1;fontStyle=1;fillColor=#f5f5f5;strokeColor=#666666;fontColor=#333333;" vertex="1" parent="1">
          <mxGeometry x="-175" y="1120" width="1200" height="40" as="geometry" />
        </mxCell>
        <mxCell id="0rgBf8szZGn3hUB_6yJd-86" value="&lt;span style=&quot;forced-color-adjust: none; color: rgb(0, 0, 0); font-size: 12px; font-style: normal; font-variant-ligatures: normal; font-variant-caps: normal; font-weight: 400; letter-spacing: normal; orphans: 2; text-align: left; text-indent: 0px; text-transform: none; widows: 2; word-spacing: 0px; -webkit-text-stroke-width: 0px; white-space: normal; text-decoration-thickness: initial; text-decoration-style: initial; text-decoration-color: initial; background-color: rgb(251, 251, 251); float: none; display: inline !important;&quot;&gt;&lt;font style=&quot;forced-color-adjust: none; font-size: 24px;&quot;&gt;π&lt;/font&gt;&lt;font style=&quot;forced-color-adjust: none; font-size: 18px;&quot;&gt;&amp;nbsp;&lt;/font&gt;&lt;/span&gt;&lt;span style=&quot;forced-color-adjust: none; color: rgb(0, 0, 0); font-style: normal; font-variant-ligatures: normal; font-variant-caps: normal; letter-spacing: normal; orphans: 2; text-align: left; text-indent: 0px; text-transform: none; widows: 2; word-spacing: 0px; -webkit-text-stroke-width: 0px; white-space: normal; text-decoration-thickness: initial; text-decoration-style: initial; text-decoration-color: initial; background-color: rgb(251, 251, 251); float: none; display: inline !important;&quot;&gt;&lt;font style=&quot;font-size: 12px; font-weight: 400; forced-color-adjust: none;&quot;&gt;nombre, apellido, DNI, telefono, direccion&lt;/font&gt;&lt;font style=&quot;font-size: 12px; font-weight: 400; forced-color-adjust: none;&quot;&gt;&lt;span&gt;&amp;nbsp;&lt;/span&gt;&lt;/font&gt;&lt;font style=&quot;font-size: 18px; font-weight: 400; forced-color-adjust: none;&quot;&gt;(&lt;/font&gt;&lt;font style=&quot;font-size: 24px; font-weight: 400; forced-color-adjust: none;&quot;&gt;σ&lt;/font&gt;&lt;font style=&quot;font-size: 18px; font-weight: 400; forced-color-adjust: none;&quot;&gt;&amp;nbsp;&lt;/font&gt;&lt;font style=&quot;forced-color-adjust: none;&quot;&gt;&lt;span style=&quot;font-size: 12px; font-weight: 400; forced-color-adjust: none;&quot;&gt;(DNI &amp;gt; “22222222”) and (total &amp;lt; 100000)&amp;nbsp;&amp;nbsp;&lt;span&gt;&amp;nbsp;&lt;/span&gt;&lt;/span&gt;&lt;font style=&quot;forced-color-adjust: none;&quot;&gt;&lt;font style=&quot;font-size: 18px; font-weight: 400; forced-color-adjust: none;&quot;&gt;(&lt;/font&gt;&lt;font style=&quot;font-size: 18px; forced-color-adjust: none;&quot;&gt;&lt;font style=&quot;font-size: 12px;&quot;&gt;&lt;span style=&quot;font-size: 24px;&quot;&gt;σ&lt;/span&gt;&amp;nbsp;cliente.idCliente = factura.idCliente &lt;/font&gt;(Cliente x Factura)))&lt;/font&gt;&lt;/font&gt;&lt;/font&gt;&lt;/span&gt;" style="text;whiteSpace=wrap;html=1;fontFamily=Comic Sans MS;verticalAlign=middle;" vertex="1" parent="1">
          <mxGeometry x="-175" y="1200" width="1200" height="40" as="geometry" />
        </mxCell>
        <mxCell id="0rgBf8szZGn3hUB_6yJd-87" value="&lt;span style=&quot;forced-color-adjust: none; color: rgb(0, 0, 0); font-family: Helvetica; font-size: 12px; font-style: normal; font-variant-ligatures: normal; font-variant-caps: normal; font-weight: 400; letter-spacing: normal; orphans: 2; text-align: left; text-indent: 0px; text-transform: none; widows: 2; word-spacing: 0px; -webkit-text-stroke-width: 0px; white-space: normal; text-decoration-thickness: initial; text-decoration-style: initial; text-decoration-color: initial; background-color: rgb(251, 251, 251); float: none; display: inline !important;&quot;&gt;&lt;font face=&quot;Comic Sans MS&quot; style=&quot;forced-color-adjust: none; font-size: 24px;&quot;&gt;π&lt;/font&gt;&lt;font face=&quot;Comic Sans MS&quot; style=&quot;forced-color-adjust: none; font-size: 18px;&quot;&gt;&amp;nbsp;&lt;/font&gt;&lt;/span&gt;&lt;span style=&quot;forced-color-adjust: none; color: rgb(0, 0, 0); font-family: Helvetica; font-size: 12px; font-style: normal; font-variant-ligatures: normal; font-variant-caps: normal; font-weight: 400; letter-spacing: normal; orphans: 2; text-align: left; text-indent: 0px; text-transform: none; widows: 2; word-spacing: 0px; -webkit-text-stroke-width: 0px; white-space: normal; text-decoration-thickness: initial; text-decoration-style: initial; text-decoration-color: initial; background-color: rgb(251, 251, 251); float: none; display: inline !important;&quot;&gt;&lt;font face=&quot;Comic Sans MS&quot; style=&quot;forced-color-adjust: none; font-size: 12px;&quot;&gt;nombre, apellido, DNI, telefono, direccion&lt;/font&gt;&lt;font face=&quot;HGU8U4_J7BmztBYeBlUx&quot; style=&quot;forced-color-adjust: none; font-size: 12px;&quot;&gt;&lt;span&gt;&amp;nbsp;&lt;/span&gt;&lt;/font&gt;&lt;font face=&quot;Comic Sans MS&quot; style=&quot;forced-color-adjust: none; font-size: 18px;&quot;&gt;(&lt;/font&gt;&lt;font style=&quot;forced-color-adjust: none; font-family: srKWryZNSRmXTXJAFYNI; font-size: 18px;&quot;&gt;&lt;span style=&quot;font-family: &amp;quot;Comic Sans MS&amp;quot;; font-size: 24px;&quot;&gt;σ&lt;/span&gt;&amp;nbsp;&lt;/font&gt;&lt;font face=&quot;Comic Sans MS&quot; style=&quot;forced-color-adjust: none;&quot;&gt;&lt;span style=&quot;forced-color-adjust: none; font-size: 12px;&quot;&gt;(fecha &amp;gt;= &quot;01/01/2020&quot;) and (fecha &amp;lt;= &quot;31/12/2020&quot;)&amp;nbsp;&lt;span&gt;&amp;nbsp;&lt;/span&gt;&lt;/span&gt;&lt;font style=&quot;forced-color-adjust: none; font-size: 18px;&quot;&gt;&lt;font style=&quot;forced-color-adjust: none;&quot;&gt;(&lt;/font&gt;&lt;font style=&quot;forced-color-adjust: none;&quot;&gt;Cliente |x| Factura)&lt;/font&gt;&lt;font style=&quot;forced-color-adjust: none;&quot;&gt;)&lt;/font&gt;&lt;/font&gt;&lt;/font&gt;&lt;/span&gt;" style="text;whiteSpace=wrap;html=1;verticalAlign=middle;" vertex="1" parent="1">
          <mxGeometry x="-173.5" y="1320" width="1198.5" height="40" as="geometry" />
        </mxCell>
        <mxCell id="0rgBf8szZGn3hUB_6yJd-88" value="&lt;span style=&quot;forced-color-adjust: none; color: rgb(0, 0, 0); font-family: Helvetica; font-size: 12px; font-style: normal; font-variant-ligatures: normal; font-variant-caps: normal; font-weight: 400; letter-spacing: normal; orphans: 2; text-align: left; text-indent: 0px; text-transform: none; widows: 2; word-spacing: 0px; -webkit-text-stroke-width: 0px; white-space: normal; text-decoration-thickness: initial; text-decoration-style: initial; text-decoration-color: initial; background-color: rgb(251, 251, 251); float: none; display: inline !important;&quot;&gt;&lt;font face=&quot;Comic Sans MS&quot; style=&quot;forced-color-adjust: none; font-size: 24px;&quot;&gt;π&lt;/font&gt;&lt;font face=&quot;Comic Sans MS&quot; style=&quot;forced-color-adjust: none; font-size: 18px;&quot;&gt;&amp;nbsp;&lt;/font&gt;&lt;/span&gt;&lt;span style=&quot;forced-color-adjust: none; color: rgb(0, 0, 0); font-family: Helvetica; font-size: 12px; font-style: normal; font-variant-ligatures: normal; font-variant-caps: normal; font-weight: 400; letter-spacing: normal; orphans: 2; text-align: left; text-indent: 0px; text-transform: none; widows: 2; word-spacing: 0px; -webkit-text-stroke-width: 0px; white-space: normal; text-decoration-thickness: initial; text-decoration-style: initial; text-decoration-color: initial; background-color: rgb(251, 251, 251); float: none; display: inline !important;&quot;&gt;&lt;font face=&quot;Comic Sans MS&quot; style=&quot;forced-color-adjust: none; font-size: 12px;&quot;&gt;nombre, apellido, DNI, telefono, direccion&lt;/font&gt;&lt;font face=&quot;HGU8U4_J7BmztBYeBlUx&quot; style=&quot;forced-color-adjust: none; font-size: 12px;&quot;&gt;&lt;span&gt;&amp;nbsp;&lt;/span&gt;&lt;/font&gt;&lt;font face=&quot;Comic Sans MS&quot; style=&quot;forced-color-adjust: none; font-size: 18px;&quot;&gt;(&lt;/font&gt;&lt;font style=&quot;forced-color-adjust: none; font-family: srKWryZNSRmXTXJAFYNI; font-size: 18px;&quot;&gt;&lt;span style=&quot;font-family: &amp;quot;Comic Sans MS&amp;quot;; font-size: 24px;&quot;&gt;σ&lt;/span&gt;&amp;nbsp;&lt;/font&gt;&lt;font face=&quot;Comic Sans MS&quot; style=&quot;forced-color-adjust: none;&quot;&gt;&lt;span style=&quot;forced-color-adjust: none; font-size: 12px;&quot;&gt;(fecha &amp;gt;= &quot;01/01/2020&quot;) and (fecha &amp;lt;= &quot;31/12/2020&quot;)&amp;nbsp;&lt;span&gt;&amp;nbsp;&lt;/span&gt;&lt;/span&gt;&lt;font style=&quot;forced-color-adjust: none; font-size: 18px;&quot;&gt;&lt;font style=&quot;forced-color-adjust: none;&quot;&gt;(&lt;span style=&quot;font-size: 24px;&quot;&gt;σ&lt;/span&gt;&lt;span style=&quot;font-size: 12px;&quot;&gt;&amp;nbsp;cliente.idCliente = factura.idCliente&amp;nbsp;&lt;/span&gt;(&lt;/font&gt;&lt;font style=&quot;forced-color-adjust: none;&quot;&gt;Cliente x Factura)&lt;/font&gt;&lt;font style=&quot;forced-color-adjust: none;&quot;&gt;))&lt;/font&gt;&lt;/font&gt;&lt;/font&gt;&lt;/span&gt;" style="text;whiteSpace=wrap;html=1;verticalAlign=middle;" vertex="1" parent="1">
          <mxGeometry x="-173.5" y="1360" width="1198.5" height="40" as="geometry" />
        </mxCell>
        <mxCell id="0rgBf8szZGn3hUB_6yJd-89" value="&lt;span style=&quot;font-family: &amp;quot;Comic Sans MS&amp;quot;; font-size: 18px;&quot;&gt;cliente_2020&amp;nbsp;&lt;/span&gt;&lt;font style=&quot;background-color: initial;&quot; face=&quot;Comic Sans MS&quot;&gt;&lt;font style=&quot;font-size: 18px;&quot;&gt;&lt;font style=&quot;font-size: 12px; background-color: initial;&quot; face=&quot;Comic Sans MS&quot;&gt;&lt;font style=&quot;font-size: 20px;&quot;&gt;&amp;lt;&lt;/font&gt;&lt;font style=&quot;font-size: 16px;&quot;&gt;=&lt;/font&gt;&lt;/font&gt;&lt;span style=&quot;font-size: 16px;&quot;&gt;=&amp;nbsp;&lt;/span&gt;&lt;/font&gt;&lt;/font&gt;&lt;font style=&quot;font-size: 24px;&quot; face=&quot;Comic Sans MS&quot;&gt;π&lt;/font&gt;&lt;font style=&quot;font-size: 18px;&quot; face=&quot;Comic Sans MS&quot;&gt;&amp;nbsp;&lt;/font&gt;&lt;font face=&quot;Comic Sans MS&quot;&gt;nombre, apellido, DNI, telefono, direccion&lt;/font&gt;&lt;font face=&quot;HGU8U4_J7BmztBYeBlUx&quot;&gt;&amp;nbsp;&lt;/font&gt;&lt;font style=&quot;font-size: 18px;&quot; face=&quot;Comic Sans MS&quot;&gt;(&lt;/font&gt;&lt;font style=&quot;font-family: srKWryZNSRmXTXJAFYNI; font-size: 18px;&quot;&gt;&lt;span style=&quot;font-family: &amp;quot;Comic Sans MS&amp;quot;; font-size: 24px;&quot;&gt;σ&lt;/span&gt;&amp;nbsp;&lt;/font&gt;&lt;font face=&quot;Comic Sans MS&quot;&gt;(fecha &amp;gt;= &quot;01/01/2020&quot;) and (fecha &amp;lt;= &quot;31/12/2020&quot;)&amp;nbsp;&amp;nbsp;&lt;font style=&quot;font-size: 18px;&quot;&gt;(Cliente |x| Factura))&lt;/font&gt;&lt;/font&gt;&lt;div&gt;&lt;font style=&quot;background-color: initial; font-size: 24px;&quot; face=&quot;Comic Sans MS&quot;&gt;π&lt;/font&gt;&lt;font style=&quot;background-color: initial; font-size: 18px;&quot; face=&quot;Comic Sans MS&quot;&gt;&amp;nbsp;&lt;/font&gt;&lt;font style=&quot;background-color: initial;&quot; face=&quot;Comic Sans MS&quot;&gt;nombre, apellido, DNI, telefono, direccion&lt;/font&gt;&lt;font style=&quot;background-color: initial;&quot; face=&quot;HGU8U4_J7BmztBYeBlUx&quot;&gt;&amp;nbsp;&lt;/font&gt;&lt;font style=&quot;background-color: initial; font-size: 18px;&quot; face=&quot;Comic Sans MS&quot;&gt;(&amp;nbsp;&lt;/font&gt;&lt;font style=&quot;background-color: initial;&quot; face=&quot;Comic Sans MS&quot;&gt;&lt;font style=&quot;font-size: 18px;&quot;&gt;Cliente -&amp;nbsp;&lt;/font&gt;&lt;/font&gt;&lt;span style=&quot;background-color: initial; font-family: &amp;quot;Comic Sans MS&amp;quot;; font-size: 18px;&quot;&gt;cliente_2020&amp;nbsp;&lt;/span&gt;&lt;span style=&quot;background-color: initial; font-size: 18px; font-family: &amp;quot;Comic Sans MS&amp;quot;;&quot;&gt;)&lt;/span&gt;&lt;/div&gt;" style="text;whiteSpace=wrap;html=1;verticalAlign=middle;" vertex="1" parent="1">
          <mxGeometry x="-174" y="1480" width="1199" height="80" as="geometry" />
        </mxCell>
        <mxCell id="0rgBf8szZGn3hUB_6yJd-90" value="&lt;div&gt;&lt;span style=&quot;font-family: &amp;quot;Comic Sans MS&amp;quot;; font-size: 18px;&quot;&gt;cliente_2020&amp;nbsp;&lt;/span&gt;&lt;font style=&quot;background-color: initial;&quot; face=&quot;Comic Sans MS&quot;&gt;&lt;font style=&quot;font-size: 18px;&quot;&gt;&lt;font style=&quot;font-size: 12px; background-color: initial;&quot; face=&quot;Comic Sans MS&quot;&gt;&lt;font style=&quot;font-size: 20px;&quot;&gt;&amp;lt;&lt;/font&gt;&lt;font style=&quot;font-size: 16px;&quot;&gt;=&lt;/font&gt;&lt;/font&gt;&lt;span style=&quot;font-size: 16px;&quot;&gt;=&lt;/span&gt;&lt;font style=&quot;font-size: 12px; background-color: initial;&quot; face=&quot;Comic Sans MS&quot;&gt;&lt;font style=&quot;font-size: 20px;&quot;&gt;&amp;nbsp;&lt;/font&gt;&lt;/font&gt;&lt;/font&gt;&lt;/font&gt;&lt;font style=&quot;background-color: initial; font-size: 24px;&quot; face=&quot;Comic Sans MS&quot;&gt;π&lt;/font&gt;&lt;font style=&quot;background-color: initial; font-size: 18px;&quot; face=&quot;Comic Sans MS&quot;&gt;&amp;nbsp;&lt;/font&gt;&lt;font style=&quot;background-color: initial;&quot; face=&quot;Comic Sans MS&quot;&gt;nombre, apellido, DNI, telefono, direccion&lt;/font&gt;&lt;font style=&quot;background-color: initial;&quot; face=&quot;HGU8U4_J7BmztBYeBlUx&quot;&gt;&amp;nbsp;&lt;/font&gt;&lt;font style=&quot;background-color: initial; font-size: 18px;&quot; face=&quot;Comic Sans MS&quot;&gt;(&lt;/font&gt;&lt;font style=&quot;background-color: initial; font-family: srKWryZNSRmXTXJAFYNI; font-size: 18px;&quot;&gt;&lt;span style=&quot;font-family: &amp;quot;Comic Sans MS&amp;quot;; font-size: 24px;&quot;&gt;σ&lt;/span&gt;&amp;nbsp;&lt;/font&gt;&lt;span style=&quot;font-family: &amp;quot;Comic Sans MS&amp;quot;;&quot;&gt;(fecha &amp;gt;= &quot;01/01/2020&quot;) and (fecha &amp;lt;= &quot;31/12/2020&quot;)&amp;nbsp;&lt;/span&gt;&lt;font style=&quot;background-color: initial;&quot; face=&quot;Comic Sans MS&quot;&gt;&amp;nbsp;&amp;nbsp;&lt;font style=&quot;font-size: 18px;&quot;&gt;(Cliente |x| Factura)&lt;/font&gt;&lt;/font&gt;&lt;span style=&quot;background-color: initial; font-family: &amp;quot;Comic Sans MS&amp;quot;; font-size: 18px;&quot;&gt;)&lt;/span&gt;&lt;/div&gt;&lt;div&gt;&lt;span style=&quot;forced-color-adjust: none; color: rgb(0, 0, 0); font-family: Helvetica; font-size: 12px; font-style: normal; font-variant-ligatures: normal; font-variant-caps: normal; font-weight: 400; letter-spacing: normal; orphans: 2; text-align: left; text-indent: 0px; text-transform: none; widows: 2; word-spacing: 0px; -webkit-text-stroke-width: 0px; white-space: normal; text-decoration-thickness: initial; text-decoration-style: initial; text-decoration-color: initial; background-color: rgb(251, 251, 251); float: none; display: inline !important;&quot;&gt;&lt;font face=&quot;Comic Sans MS&quot; style=&quot;forced-color-adjust: none;&quot;&gt;&lt;font style=&quot;forced-color-adjust: none; font-size: 18px;&quot;&gt;&lt;font style=&quot;forced-color-adjust: none;&quot;&gt;&lt;font style=&quot;font-size: 12px; background-color: initial;&quot; face=&quot;Comic Sans MS&quot;&gt;&lt;font style=&quot;font-size: 18px;&quot;&gt;cliente_fuera_2020&amp;nbsp;&lt;/font&gt;&lt;font style=&quot;font-size: 20px;&quot;&gt;&amp;lt;&lt;/font&gt;&lt;font style=&quot;font-size: 16px;&quot;&gt;=&lt;/font&gt;&lt;/font&gt;&lt;span style=&quot;font-size: 16px;&quot;&gt;=&lt;/span&gt;&lt;font style=&quot;font-size: 12px; background-color: initial;&quot; face=&quot;Comic Sans MS&quot;&gt;&lt;font style=&quot;font-size: 20px;&quot;&gt;&amp;nbsp;&lt;/font&gt;&lt;/font&gt;&lt;/font&gt;&lt;/font&gt;&lt;/font&gt;&lt;/span&gt;&lt;font style=&quot;background-color: initial; font-size: 24px;&quot; face=&quot;Comic Sans MS&quot;&gt;π&lt;/font&gt;&lt;font style=&quot;background-color: initial; font-size: 18px;&quot; face=&quot;Comic Sans MS&quot;&gt;&amp;nbsp;&lt;/font&gt;&lt;font style=&quot;background-color: initial;&quot; face=&quot;Comic Sans MS&quot;&gt;nombre, apellido, DNI, telefono, direccion&lt;/font&gt;&lt;font style=&quot;background-color: initial;&quot; face=&quot;HGU8U4_J7BmztBYeBlUx&quot;&gt;&amp;nbsp;&lt;/font&gt;&lt;font style=&quot;background-color: initial; font-size: 18px;&quot; face=&quot;Comic Sans MS&quot;&gt;(&lt;/font&gt;&lt;font style=&quot;background-color: initial; font-family: srKWryZNSRmXTXJAFYNI; font-size: 18px;&quot;&gt;&lt;span style=&quot;font-family: &amp;quot;Comic Sans MS&amp;quot;; font-size: 24px;&quot;&gt;σ&lt;/span&gt;&amp;nbsp;&lt;/font&gt;&lt;span style=&quot;font-family: &amp;quot;Comic Sans MS&amp;quot;;&quot;&gt;(fecha &amp;gt;= &quot;01/01/2020&quot;) or (fecha &amp;lt;= &quot;31/12/2020&quot;)&lt;/span&gt;&lt;font style=&quot;background-color: initial;&quot; face=&quot;Comic Sans MS&quot;&gt;&amp;nbsp;&amp;nbsp;&lt;font style=&quot;font-size: 18px;&quot;&gt;(Cliente |x| Factura)&lt;/font&gt;&lt;/font&gt;&lt;span style=&quot;font-family: &amp;quot;Comic Sans MS&amp;quot;; font-size: 18px; background-color: initial;&quot;&gt;)&lt;/span&gt;&lt;/div&gt;&lt;div&gt;&lt;font style=&quot;background-color: initial; font-size: 24px;&quot; face=&quot;Comic Sans MS&quot;&gt;π&lt;/font&gt;&lt;font style=&quot;background-color: initial; font-size: 18px;&quot; face=&quot;Comic Sans MS&quot;&gt;&amp;nbsp;&lt;/font&gt;&lt;font style=&quot;background-color: initial;&quot; face=&quot;Comic Sans MS&quot;&gt;nombre, apellido, DNI, telefono, direccion&amp;nbsp;&lt;/font&gt;&lt;span style=&quot;font-family: &amp;quot;Comic Sans MS&amp;quot;; font-size: 18px; background-color: initial;&quot;&gt;&lt;/span&gt;&lt;font style=&quot;background-color: initial; font-size: 18px;&quot; face=&quot;Comic Sans MS&quot;&gt;(&amp;nbsp;&lt;/font&gt;&lt;span style=&quot;font-family: &amp;quot;Comic Sans MS&amp;quot;; font-size: 18px;&quot;&gt;cliente_2020 -&amp;nbsp;&lt;/span&gt;&lt;span style=&quot;font-family: &amp;quot;Comic Sans MS&amp;quot;; font-size: 18px;&quot;&gt;cliente_fuera_2020&amp;nbsp;&lt;/span&gt;&lt;span style=&quot;background-color: initial; font-family: &amp;quot;Comic Sans MS&amp;quot;; font-size: 18px;&quot;&gt;)&lt;/span&gt;&lt;/div&gt;" style="text;whiteSpace=wrap;html=1;verticalAlign=middle;" vertex="1" parent="1">
          <mxGeometry x="-175" y="1640" width="1200" height="120" as="geometry" />
        </mxCell>
        <mxCell id="0rgBf8szZGn3hUB_6yJd-91" value="&lt;span style=&quot;font-family: &amp;quot;Comic Sans MS&amp;quot;; font-size: 18px;&quot;&gt;producto_vendido&amp;nbsp;&amp;nbsp;&lt;/span&gt;&lt;font style=&quot;font-family: &amp;quot;Comic Sans MS&amp;quot;; background-color: initial;&quot; face=&quot;Comic Sans MS&quot;&gt;&lt;font style=&quot;font-size: 20px;&quot;&gt;&amp;lt;&lt;/font&gt;&lt;font style=&quot;font-size: 16px;&quot;&gt;=&lt;/font&gt;&lt;/font&gt;&lt;span style=&quot;font-family: &amp;quot;Comic Sans MS&amp;quot;; font-size: 16px;&quot;&gt;=&amp;nbsp;&lt;/span&gt;&lt;font style=&quot;font-size: 24px;&quot; face=&quot;Comic Sans MS&quot;&gt;π&lt;/font&gt;&lt;font style=&quot;font-size: 18px;&quot; face=&quot;Comic Sans MS&quot;&gt;&amp;nbsp;&lt;/font&gt;&lt;span style=&quot;font-weight: 700;&quot;&gt;nombre, descripción, precio y stock&lt;/span&gt;&lt;font face=&quot;HGU8U4_J7BmztBYeBlUx&quot;&gt;&amp;nbsp;&lt;/font&gt;&lt;font style=&quot;font-size: 18px;&quot; face=&quot;Comic Sans MS&quot;&gt;(&lt;/font&gt;&lt;font face=&quot;Comic Sans MS&quot;&gt;&lt;font style=&quot;font-size: 18px;&quot;&gt;Producto |x| Detalle)&lt;/font&gt;&lt;/font&gt;&lt;div&gt;&lt;font style=&quot;font-size: 24px;&quot; face=&quot;Comic Sans MS&quot;&gt;π&lt;/font&gt;&lt;font style=&quot;font-size: 18px;&quot; face=&quot;Comic Sans MS&quot;&gt;&amp;nbsp;&lt;/font&gt;&lt;span style=&quot;font-weight: 700;&quot;&gt;nombre, descripción, precio y stock&lt;/span&gt;&lt;font face=&quot;HGU8U4_J7BmztBYeBlUx&quot;&gt;&amp;nbsp;&lt;/font&gt;&lt;font style=&quot;font-size: 18px;&quot; face=&quot;Comic Sans MS&quot;&gt;(&amp;nbsp;&lt;/font&gt;&lt;font face=&quot;Comic Sans MS&quot;&gt;&lt;font style=&quot;font-size: 18px;&quot;&gt;Producto -&amp;nbsp;&lt;/font&gt;&lt;/font&gt;&lt;span style=&quot;font-family: &amp;quot;Comic Sans MS&amp;quot;; font-size: 18px;&quot;&gt;producto_vendido&amp;nbsp;&lt;/span&gt;&lt;font face=&quot;Comic Sans MS&quot;&gt;&lt;font style=&quot;font-size: 18px;&quot;&gt;)&lt;/font&gt;&lt;/font&gt;&lt;font face=&quot;Comic Sans MS&quot;&gt;&lt;font style=&quot;font-size: 18px;&quot;&gt;&lt;/font&gt;&lt;/font&gt;&lt;/div&gt;" style="text;whiteSpace=wrap;html=1;verticalAlign=middle;" vertex="1" parent="1">
          <mxGeometry x="-175" y="1840" width="1200" height="80" as="geometry" />
        </mxCell>
        <mxCell id="0rgBf8szZGn3hUB_6yJd-92" value="&lt;font style=&quot;background-color: initial; font-family: &amp;quot;Comic Sans MS&amp;quot;;&quot; face=&quot;Comic Sans MS&quot;&gt;&lt;font style=&quot;font-size: 18px;&quot;&gt;cliente_producto_x&amp;nbsp;&lt;/font&gt;&lt;font style=&quot;font-size: 20px;&quot;&gt;&amp;lt;&lt;/font&gt;&lt;font style=&quot;font-size: 16px;&quot;&gt;=&lt;/font&gt;&lt;/font&gt;&lt;span style=&quot;font-family: &amp;quot;Comic Sans MS&amp;quot;; font-size: 16px;&quot;&gt;=&amp;nbsp;&lt;/span&gt;&lt;font style=&quot;font-size: 24px;&quot; face=&quot;Comic Sans MS&quot;&gt;π&lt;/font&gt;&lt;font style=&quot;font-size: 18px;&quot; face=&quot;Comic Sans MS&quot;&gt;&amp;nbsp;&lt;/font&gt;&lt;font face=&quot;Comic Sans MS&quot;&gt;nombre, apellido, DNI, telefono, direccion&lt;/font&gt;&lt;font face=&quot;HGU8U4_J7BmztBYeBlUx&quot;&gt;&amp;nbsp;&lt;/font&gt;&lt;font style=&quot;font-size: 18px;&quot; face=&quot;Comic Sans MS&quot;&gt;(&lt;/font&gt;&lt;font style=&quot;font-family: srKWryZNSRmXTXJAFYNI; font-size: 18px;&quot;&gt;&lt;span style=&quot;font-family: &amp;quot;Comic Sans MS&amp;quot;; font-size: 24px;&quot;&gt;σ&lt;/span&gt;&lt;/font&gt;&lt;font face=&quot;Comic Sans MS&quot;&gt;&amp;nbsp;nombreP = &quot;ProductoX&quot;&amp;nbsp;&lt;font style=&quot;font-size: 18px;&quot;&gt;(Cliente |x|&amp;nbsp;&lt;/font&gt;&lt;/font&gt;&lt;span style=&quot;font-family: &amp;quot;Comic Sans MS&amp;quot;; font-size: 18px;&quot;&gt;Factura&lt;/span&gt;&lt;span style=&quot;font-family: &amp;quot;Comic Sans MS&amp;quot;; font-size: 18px;&quot;&gt;&amp;nbsp;|x| Detalle&lt;/span&gt;&lt;span style=&quot;font-family: &amp;quot;Comic Sans MS&amp;quot;; font-size: 18px;&quot;&gt;&amp;nbsp;|x| Producto&lt;/span&gt;&lt;font face=&quot;Comic Sans MS&quot;&gt;&lt;font style=&quot;font-size: 18px;&quot;&gt;))&lt;/font&gt;&lt;/font&gt;&lt;div&gt;&lt;font style=&quot;font-size: 24px;&quot; face=&quot;Comic Sans MS&quot;&gt;π&lt;/font&gt;&lt;font style=&quot;font-size: 18px;&quot; face=&quot;Comic Sans MS&quot;&gt;&amp;nbsp;&lt;/font&gt;&lt;font face=&quot;Comic Sans MS&quot;&gt;nombre, apellido, DNI, telefono, direccion&lt;/font&gt;&lt;font face=&quot;HGU8U4_J7BmztBYeBlUx&quot;&gt;&amp;nbsp;&lt;/font&gt;&lt;font face=&quot;Comic Sans MS&quot;&gt;&lt;font style=&quot;font-size: 18px;&quot;&gt;( Cliente -&lt;/font&gt;&lt;/font&gt;&lt;span style=&quot;font-family: &amp;quot;Comic Sans MS&amp;quot;; font-size: 18px;&quot;&gt;&amp;nbsp;cliente_producto_x&amp;nbsp;&lt;/span&gt;&lt;font face=&quot;Comic Sans MS&quot;&gt;&lt;font style=&quot;font-size: 18px;&quot;&gt;)&lt;/font&gt;&lt;/font&gt;&lt;/div&gt;" style="text;whiteSpace=wrap;html=1;verticalAlign=middle;" vertex="1" parent="1">
          <mxGeometry x="-174" y="2000" width="1199" height="80" as="geometry" />
        </mxCell>
        <mxCell id="0rgBf8szZGn3hUB_6yJd-93" value="&lt;b&gt;&lt;span style=&quot;color: rgb(0, 0, 0); font-family: Helvetica; font-size: 12px; font-style: normal; font-variant-ligatures: normal; font-variant-caps: normal; letter-spacing: normal; orphans: 2; text-align: left; text-indent: 0px; text-transform: none; widows: 2; word-spacing: 0px; -webkit-text-stroke-width: 0px; white-space: normal; background-color: rgb(251, 251, 251); text-decoration-thickness: initial; text-decoration-style: initial; text-decoration-color: initial; float: none; display: inline !important;&quot;&gt;8. Listar nombre, apellido, DNI, teléfono y dirección de clientes que compraron el producto con nombre&amp;nbsp;&lt;/span&gt;&lt;span style=&quot;color: rgb(0, 0, 0); font-family: Helvetica; font-size: 12px; font-style: normal; font-variant-ligatures: normal; font-variant-caps: normal; letter-spacing: normal; orphans: 2; text-align: left; text-indent: 0px; text-transform: none; widows: 2; word-spacing: 0px; -webkit-text-stroke-width: 0px; white-space: normal; background-color: rgb(251, 251, 251); text-decoration-thickness: initial; text-decoration-style: initial; text-decoration-color: initial; float: none; display: inline !important;&quot;&gt;‘Producto A’’ y no compraron el producto con nombre ‘Producto B’.&lt;/span&gt;&lt;/b&gt;" style="text;whiteSpace=wrap;html=1;fillColor=#f5f5f5;fontColor=#333333;strokeColor=#666666;" vertex="1" parent="1">
          <mxGeometry x="-175" y="2120" width="1200" height="40" as="geometry" />
        </mxCell>
        <mxCell id="0rgBf8szZGn3hUB_6yJd-94" value="&lt;b&gt;&lt;span style=&quot;color: rgb(0, 0, 0); font-family: Helvetica; font-size: 12px; font-style: normal; font-variant-ligatures: normal; font-variant-caps: normal; letter-spacing: normal; orphans: 2; text-align: left; text-indent: 0px; text-transform: none; widows: 2; word-spacing: 0px; -webkit-text-stroke-width: 0px; white-space: normal; background-color: rgb(251, 251, 251); text-decoration-thickness: initial; text-decoration-style: initial; text-decoration-color: initial; float: none; display: inline !important;&quot;&gt;9. Listar nroTicket, total, fecha, hora y DNI del cliente, de aquellas facturas donde se haya comprado el&amp;nbsp;&lt;/span&gt;&lt;span style=&quot;color: rgb(0, 0, 0); font-family: Helvetica; font-size: 12px; font-style: normal; font-variant-ligatures: normal; font-variant-caps: normal; letter-spacing: normal; orphans: 2; text-align: left; text-indent: 0px; text-transform: none; widows: 2; word-spacing: 0px; -webkit-text-stroke-width: 0px; white-space: normal; background-color: rgb(251, 251, 251); text-decoration-thickness: initial; text-decoration-style: initial; text-decoration-color: initial; float: none; display: inline !important;&quot;&gt;producto ‘Producto C’.&lt;/span&gt;&lt;/b&gt;" style="text;whiteSpace=wrap;html=1;fillColor=#f5f5f5;fontColor=#333333;strokeColor=#666666;" vertex="1" parent="1">
          <mxGeometry x="-175" y="2320" width="1200" height="40" as="geometry" />
        </mxCell>
        <mxCell id="0rgBf8szZGn3hUB_6yJd-95" value="&lt;div style=&quot;&quot;&gt;&lt;font style=&quot;background-color: initial; font-family: &amp;quot;Comic Sans MS&amp;quot;;&quot; face=&quot;Comic Sans MS&quot;&gt;&lt;font style=&quot;font-size: 18px;&quot;&gt;cliente_producto_a&amp;nbsp;&lt;/font&gt;&lt;font style=&quot;font-size: 20px;&quot;&gt;&amp;lt;&lt;/font&gt;&lt;font style=&quot;font-size: 16px;&quot;&gt;=&lt;/font&gt;&lt;/font&gt;&lt;span style=&quot;background-color: initial; font-family: &amp;quot;Comic Sans MS&amp;quot;; font-size: 16px;&quot;&gt;=&amp;nbsp;&lt;/span&gt;&lt;font style=&quot;background-color: initial;&quot; face=&quot;Comic Sans MS&quot;&gt;&lt;span style=&quot;font-size: 24px;&quot;&gt;π&lt;/span&gt;&lt;/font&gt;&lt;font style=&quot;background-color: initial; font-size: 18px;&quot; face=&quot;Comic Sans MS&quot;&gt;&amp;nbsp;&lt;/font&gt;&lt;font style=&quot;background-color: initial;&quot; face=&quot;Comic Sans MS&quot;&gt;nombre, apellido, DNI, telefono, direccion&lt;/font&gt;&lt;font style=&quot;background-color: initial;&quot; face=&quot;HGU8U4_J7BmztBYeBlUx&quot;&gt;&amp;nbsp;&lt;/font&gt;&lt;font style=&quot;background-color: initial; font-size: 18px;&quot; face=&quot;Comic Sans MS&quot;&gt;(&lt;/font&gt;&lt;font style=&quot;background-color: initial; font-family: srKWryZNSRmXTXJAFYNI; font-size: 18px;&quot;&gt;&lt;span style=&quot;font-family: &amp;quot;Comic Sans MS&amp;quot;; font-size: 24px;&quot;&gt;σ&lt;/span&gt;&lt;/font&gt;&lt;font style=&quot;background-color: initial;&quot; face=&quot;Comic Sans MS&quot;&gt;&amp;nbsp;nombreP = &quot;ProductoA&quot;&amp;nbsp;&lt;font style=&quot;font-size: 18px;&quot;&gt;(Cliente |x|&amp;nbsp;&lt;/font&gt;&lt;/font&gt;&lt;span style=&quot;background-color: initial; font-family: &amp;quot;Comic Sans MS&amp;quot;; font-size: 18px;&quot;&gt;Factura&lt;/span&gt;&lt;span style=&quot;background-color: initial; font-family: &amp;quot;Comic Sans MS&amp;quot;; font-size: 18px;&quot;&gt;&amp;nbsp;|x| Detalle&amp;nbsp;&lt;/span&gt;&lt;span style=&quot;background-color: initial; font-family: &amp;quot;Comic Sans MS&amp;quot;; font-size: 18px;&quot;&gt;&amp;nbsp;|x| Producto&lt;/span&gt;&lt;font style=&quot;background-color: initial;&quot; face=&quot;Comic Sans MS&quot;&gt;&lt;font style=&quot;font-size: 18px;&quot;&gt;))&lt;/font&gt;&lt;/font&gt;&lt;/div&gt;&lt;div style=&quot;&quot;&gt;&lt;font style=&quot;background-color: initial; font-family: &amp;quot;Comic Sans MS&amp;quot;;&quot; face=&quot;Comic Sans MS&quot;&gt;&lt;font style=&quot;font-size: 18px;&quot;&gt;cliente_producto_b&amp;nbsp;&lt;/font&gt;&lt;font style=&quot;font-size: 20px;&quot;&gt;&amp;lt;&lt;/font&gt;&lt;font style=&quot;font-size: 16px;&quot;&gt;=&lt;/font&gt;&lt;/font&gt;&lt;span style=&quot;background-color: initial; font-family: &amp;quot;Comic Sans MS&amp;quot;; font-size: 16px;&quot;&gt;=&amp;nbsp;&lt;/span&gt;&lt;font style=&quot;background-color: initial;&quot; face=&quot;Comic Sans MS&quot;&gt;&lt;span style=&quot;font-size: 24px;&quot;&gt;π&lt;/span&gt;&lt;/font&gt;&lt;font style=&quot;background-color: initial; font-size: 18px;&quot; face=&quot;Comic Sans MS&quot;&gt;&amp;nbsp;&lt;/font&gt;&lt;font style=&quot;background-color: initial;&quot; face=&quot;Comic Sans MS&quot;&gt;nombre, apellido, DNI, telefono, direccion&lt;/font&gt;&lt;font style=&quot;background-color: initial;&quot; face=&quot;HGU8U4_J7BmztBYeBlUx&quot;&gt;&amp;nbsp;&lt;/font&gt;&lt;font style=&quot;background-color: initial; font-size: 18px;&quot; face=&quot;Comic Sans MS&quot;&gt;(&lt;/font&gt;&lt;font style=&quot;background-color: initial; font-family: srKWryZNSRmXTXJAFYNI; font-size: 18px;&quot;&gt;&lt;span style=&quot;font-family: &amp;quot;Comic Sans MS&amp;quot;; font-size: 24px;&quot;&gt;σ&lt;/span&gt;&lt;/font&gt;&lt;font style=&quot;background-color: initial;&quot; face=&quot;Comic Sans MS&quot;&gt;&amp;nbsp;nombreP = &quot;ProductoB&quot;&amp;nbsp;&lt;font style=&quot;font-size: 18px;&quot;&gt;(Cliente |x|&amp;nbsp;&lt;/font&gt;&lt;/font&gt;&lt;span style=&quot;background-color: initial; font-family: &amp;quot;Comic Sans MS&amp;quot;; font-size: 18px;&quot;&gt;Factura&lt;/span&gt;&lt;span style=&quot;background-color: initial; font-family: &amp;quot;Comic Sans MS&amp;quot;; font-size: 18px;&quot;&gt;&amp;nbsp;|x| Detalle&amp;nbsp;&lt;/span&gt;&lt;span style=&quot;background-color: initial; font-family: &amp;quot;Comic Sans MS&amp;quot;; font-size: 18px;&quot;&gt;&amp;nbsp;|x| Producto&lt;/span&gt;&lt;font style=&quot;background-color: initial;&quot; face=&quot;Comic Sans MS&quot;&gt;&lt;font style=&quot;font-size: 18px;&quot;&gt;))&lt;/font&gt;&lt;/font&gt;&lt;/div&gt;&lt;div style=&quot;&quot;&gt;&lt;font style=&quot;background-color: initial;&quot; face=&quot;Comic Sans MS&quot;&gt;&lt;span style=&quot;font-size: 24px;&quot;&gt;π&lt;/span&gt;&lt;/font&gt;&lt;font style=&quot;background-color: initial; font-size: 18px;&quot; face=&quot;Comic Sans MS&quot;&gt;&amp;nbsp;&lt;/font&gt;&lt;font style=&quot;background-color: initial;&quot; face=&quot;Comic Sans MS&quot;&gt;nombre, apellido, DNI, telefono, direccion&amp;nbsp;&lt;/font&gt;&lt;font style=&quot;background-color: initial;&quot; face=&quot;Comic Sans MS&quot;&gt;&lt;font style=&quot;font-size: 18px;&quot;&gt;(&amp;nbsp;&lt;/font&gt;&lt;/font&gt;&lt;span style=&quot;font-family: &amp;quot;Comic Sans MS&amp;quot;; font-size: 18px;&quot;&gt;cliente_producto_a -&amp;nbsp;&lt;/span&gt;&lt;span style=&quot;font-family: &amp;quot;Comic Sans MS&amp;quot;; font-size: 18px; background-color: initial;&quot;&gt;cliente_producto_b&amp;nbsp;&lt;/span&gt;&lt;span style=&quot;font-size: 18px; background-color: initial; font-family: &amp;quot;Comic Sans MS&amp;quot;;&quot;&gt;)&lt;/span&gt;&lt;/div&gt;&lt;div style=&quot;&quot;&gt;&lt;br&gt;&lt;/div&gt;" style="text;whiteSpace=wrap;html=1;verticalAlign=middle;" vertex="1" parent="1">
          <mxGeometry x="-173" y="2160" width="1198" height="120" as="geometry" />
        </mxCell>
        <mxCell id="0rgBf8szZGn3hUB_6yJd-96" value="&lt;span style=&quot;color: rgb(0, 0, 0); font-family: Helvetica; font-size: 12px; font-style: normal; font-variant-ligatures: normal; font-variant-caps: normal; letter-spacing: normal; orphans: 2; text-align: left; text-indent: 0px; text-transform: none; widows: 2; word-spacing: 0px; -webkit-text-stroke-width: 0px; white-space: normal; background-color: rgb(251, 251, 251); text-decoration-thickness: initial; text-decoration-style: initial; text-decoration-color: initial; float: none; display: inline !important;&quot;&gt;10. Agregar un producto con id de producto 1000, nombre “Producto Z”, descripción “mi producto”, precio&amp;nbsp;&lt;/span&gt;&lt;span style=&quot;color: rgb(0, 0, 0); font-family: Helvetica; font-size: 12px; font-style: normal; font-variant-ligatures: normal; font-variant-caps: normal; letter-spacing: normal; orphans: 2; text-align: left; text-indent: 0px; text-transform: none; widows: 2; word-spacing: 0px; -webkit-text-stroke-width: 0px; white-space: normal; background-color: rgb(251, 251, 251); text-decoration-thickness: initial; text-decoration-style: initial; text-decoration-color: initial; float: none; display: inline !important;&quot;&gt;$10000 y stock 1000. Se supone que el idProducto 1000 no existe.&lt;/span&gt;" style="text;whiteSpace=wrap;html=1;fillColor=#f5f5f5;fontColor=#333333;strokeColor=#666666;fontStyle=1" vertex="1" parent="1">
          <mxGeometry x="-175" y="2440" width="1200" height="40" as="geometry" />
        </mxCell>
        <mxCell id="0rgBf8szZGn3hUB_6yJd-97" value="&lt;div style=&quot;&quot;&gt;&lt;font style=&quot;background-color: initial;&quot; face=&quot;Comic Sans MS&quot;&gt;&lt;span style=&quot;font-size: 24px;&quot;&gt;π&lt;/span&gt;&lt;/font&gt;&lt;font style=&quot;background-color: initial; font-size: 18px;&quot; face=&quot;Comic Sans MS&quot;&gt;&amp;nbsp;&lt;/font&gt;&lt;font style=&quot;background-color: initial;&quot; face=&quot;Comic Sans MS&quot;&gt;nroTicket, total, fecha, hora, DNI&amp;nbsp;&lt;/font&gt;&lt;font style=&quot;background-color: initial;&quot; face=&quot;HGU8U4_J7BmztBYeBlUx&quot;&gt;&amp;nbsp;&lt;/font&gt;&lt;font style=&quot;background-color: initial; font-size: 18px;&quot; face=&quot;Comic Sans MS&quot;&gt;(&lt;/font&gt;&lt;font style=&quot;background-color: initial; font-family: srKWryZNSRmXTXJAFYNI; font-size: 18px;&quot;&gt;&lt;span style=&quot;font-family: &amp;quot;Comic Sans MS&amp;quot;; font-size: 24px;&quot;&gt;σ&lt;/span&gt;&lt;/font&gt;&lt;font style=&quot;background-color: initial;&quot; face=&quot;Comic Sans MS&quot;&gt;&amp;nbsp;nombreP = &quot;ProductoC&quot;&amp;nbsp;&lt;font style=&quot;font-size: 18px;&quot;&gt;( Cliente |x|&amp;nbsp;&lt;/font&gt;&lt;/font&gt;&lt;span style=&quot;background-color: initial; font-family: &amp;quot;Comic Sans MS&amp;quot;; font-size: 18px;&quot;&gt;Factura&lt;/span&gt;&lt;span style=&quot;background-color: initial; font-family: &amp;quot;Comic Sans MS&amp;quot;; font-size: 18px;&quot;&gt;&amp;nbsp;|x| Detalle&amp;nbsp;&lt;/span&gt;&lt;span style=&quot;background-color: initial; font-family: &amp;quot;Comic Sans MS&amp;quot;; font-size: 18px;&quot;&gt;&amp;nbsp;|x| Producto&amp;nbsp;&lt;/span&gt;&lt;font style=&quot;background-color: initial;&quot; face=&quot;Comic Sans MS&quot;&gt;&lt;font style=&quot;font-size: 18px;&quot;&gt;)&lt;/font&gt;&lt;/font&gt;&lt;span style=&quot;font-family: &amp;quot;Comic Sans MS&amp;quot;; font-size: 18px; background-color: initial;&quot;&gt;)&lt;/span&gt;&lt;br&gt;&lt;/div&gt;" style="text;whiteSpace=wrap;html=1;verticalAlign=middle;" vertex="1" parent="1">
          <mxGeometry x="-173" y="2360" width="1198" height="40" as="geometry" />
        </mxCell>
        <mxCell id="0rgBf8szZGn3hUB_6yJd-98" value="&lt;div style=&quot;&quot;&gt;&lt;font face=&quot;Comic Sans MS&quot;&gt;&lt;font style=&quot;background-color: initial; font-size: 18px;&quot;&gt;Producto&amp;nbsp;&lt;/font&gt;&lt;font style=&quot;background-color: initial; font-size: 20px;&quot;&gt;&amp;lt;&lt;/font&gt;&lt;font style=&quot;font-size: 16px; background-color: initial;&quot;&gt;==&amp;nbsp;&lt;/font&gt;&lt;span style=&quot;background-color: initial; font-size: 18px;&quot;&gt;Product&lt;/span&gt;&lt;span style=&quot;background-color: initial; font-size: 18px;&quot;&gt;o&amp;nbsp;&lt;/span&gt;&lt;span style=&quot;background-color: initial;&quot;&gt;&lt;font style=&quot;font-size: 21px;&quot;&gt;∪&lt;/font&gt;&lt;/span&gt;&lt;span style=&quot;font-size: 16px; background-color: initial;&quot;&gt; {( 1000, &quot;mi producto&quot;, 10000, &quot;producto z&quot; , 1000 )}&lt;/span&gt;&lt;/font&gt;&lt;/div&gt;" style="text;whiteSpace=wrap;html=1;verticalAlign=middle;" vertex="1" parent="1">
          <mxGeometry x="-174" y="2480" width="991" height="40" as="geometry" />
        </mxCell>
        <mxCell id="0rgBf8szZGn3hUB_6yJd-99" value="" style="rounded=0;whiteSpace=wrap;html=1;fillColor=#FFCCE6;strokeColor=#000000;" vertex="1" parent="1">
          <mxGeometry x="-215" y="840" width="40" height="1720" as="geometry" />
        </mxCell>
        <mxCell id="0rgBf8szZGn3hUB_6yJd-100" value="" style="rounded=0;whiteSpace=wrap;html=1;fillColor=#FFCCE6;strokeColor=#000000;" vertex="1" parent="1">
          <mxGeometry x="1025" y="840" width="40" height="1730" as="geometry" />
        </mxCell>
      </root>
    </mxGraphModel>
  </diagram>
</mxfile>
